<?xml version="1.0" standalone="no"?>
<!DOCTYPE svg PUBLIC "-//W3C//DTD SVG 20010904//EN"
 "http://www.w3.org/TR/2001/REC-SVG-20010904/DTD/svg10.dtd">
<svg version="1.0" xmlns="http://www.w3.org/2000/svg"
 width="493.000000pt" height="215.000000pt" viewBox="0 0 493.000000 215.000000"
 preserveAspectRatio="xMidYMid meet">

<g transform="translate(0.000000,215.000000) scale(0.100000,-0.100000)"
fill="#000000" stroke="none">
<path d="M2400 1870 c-30 -58 -27 -133 8 -201 22 -45 36 -59 81 -81 30 -16 70
-28 88 -28 49 0 100 -25 116 -57 8 -15 20 -55 27 -88 33 -163 157 -284 309
-302 45 -5 55 -3 87 22 49 37 91 106 104 171 17 80 -1 146 -61 226 -78 104
-174 136 -312 104 -139 -32 -171 -21 -247 91 -58 85 -147 183 -167 183 -7 0
-22 -18 -33 -40z"/>
<path d="M355 708 c-3 -8 -4 -141 -3 -298 l3 -285 293 -3 292 -2 0 30 0 30
-257 2 -258 3 -3 62 -3 63 238 2 238 3 3 33 3 32 -240 0 -241 0 0 135 0 135
258 2 257 3 0 30 0 30 -288 3 c-226 2 -289 0 -292 -10z"/>
<path d="M2377 594 c-4 -4 -7 -110 -7 -234 0 -243 3 -260 49 -245 19 6 21 16
23 163 l3 157 38 3 c34 3 37 6 37 33 0 27 -2 29 -39 29 l-40 0 -3 48 c-3 42
-6 47 -28 50 -14 2 -29 0 -33 -4z"/>
<path d="M4230 361 c0 -151 4 -242 10 -246 6 -3 19 -3 30 0 18 6 20 17 22 163
l3 157 40 5 c35 4 40 8 40 30 0 22 -5 26 -40 30 -40 5 -40 5 -43 53 -3 45 -5
47 -33 47 l-29 0 0 -239z"/>
<path d="M1545 489 c-40 -15 -94 -67 -111 -106 -8 -18 -14 -53 -14 -78 0 -58
19 -102 61 -141 78 -72 181 -70 253 5 24 25 27 33 16 46 -18 21 -38 19 -72
-10 -22 -19 -41 -25 -75 -25 -38 0 -50 5 -79 34 -62 62 -54 66 121 66 l155 0
0 28 c0 49 -45 128 -89 158 -47 30 -118 40 -166 23z m125 -74 c28 -15 50 -42
50 -64 0 -14 -216 -15 -225 -1 -4 6 9 26 28 45 29 29 42 35 76 35 23 0 55 -7
71 -15z"/>
<path d="M2962 475 c-55 -28 -94 -79 -107 -142 -21 -102 88 -223 200 -223 30
0 124 47 132 65 3 9 -1 24 -10 33 -15 15 -20 14 -58 -7 -60 -34 -122 -26 -166
23 -27 29 -33 44 -33 81 0 37 6 52 33 81 44 49 106 57 166 23 39 -22 42 -22
59 -6 22 22 9 44 -42 70 -61 32 -113 32 -174 2z"/>
<path d="M3835 481 c-161 -74 -147 -306 21 -361 50 -17 110 -7 158 27 46 33
56 58 29 78 -15 12 -21 11 -38 -4 -45 -41 -96 -51 -149 -31 -27 10 -69 67 -60
82 3 4 72 8 155 8 l149 0 0 33 c0 17 -9 50 -19 72 -45 98 -152 140 -246 96z
m162 -85 c43 -51 35 -56 -87 -56 -113 0 -120 3 -100 40 30 56 144 65 187 16z"/>
<path d="M990 484 c0 -3 32 -86 72 -185 61 -152 75 -179 91 -177 15 2 36 43
88 173 38 94 69 176 69 183 0 9 -11 12 -32 10 -30 -3 -33 -8 -73 -107 -23 -58
-46 -106 -52 -108 -5 -2 -27 41 -48 94 -21 54 -42 104 -48 111 -9 12 -67 18
-67 6z"/>
<path d="M2010 480 c-8 -5 -34 -6 -57 -3 l-43 6 0 -182 0 -181 30 0 30 0 0
121 0 121 34 34 c44 44 83 45 128 5 l33 -29 3 -126 4 -126 29 0 29 0 0 126 c0
146 -14 186 -80 223 -40 22 -113 28 -140 11z"/>
<path d="M2655 478 c-3 -8 -4 -90 -3 -183 l3 -170 30 0 30 0 0 180 0 180 -28
3 c-16 2 -29 -2 -32 -10z"/>
<path d="M3295 478 c-3 -8 -4 -90 -3 -183 l3 -170 26 -3 c22 -3 36 8 80 61 29
36 58 63 63 60 6 -3 34 -31 61 -63 44 -53 54 -59 88 -60 20 0 37 3 37 8 0 4
-31 43 -70 87 -38 44 -70 84 -70 90 0 6 29 46 65 89 36 43 68 82 71 87 3 5
-13 9 -35 9 -39 0 -42 -3 -137 -117 -53 -65 -101 -119 -105 -121 -5 -2 -10 50
-11 115 l-3 118 -28 3 c-16 2 -29 -2 -32 -10z"/>
<path d="M4514 480 c-34 -13 -64 -59 -64 -97 0 -50 33 -77 118 -97 82 -21 100
-35 84 -70 -14 -32 -60 -41 -124 -26 -52 13 -67 7 -68 -28 0 -33 126 -54 185
-32 46 17 75 58 75 105 0 55 -29 82 -116 106 -38 10 -75 26 -84 35 -13 14 -13
17 10 36 25 20 43 20 122 2 20 -5 29 -1 37 15 10 18 8 23 -21 41 -35 21 -114
26 -154 10z"/>
</g>
</svg>
